# Blender v2.82 (sub 7) OBJ File: 'Heart_low_poly.blend'
# www.blender.org
mtllib Heart_low_poly.mtl
o base_Cube
v 1.414214 0.250000 0.560262
v 1.414214 -0.250000 0.560262
v -1.414214 0.250000 0.560262
v -1.414214 -0.250000 0.560262
v 0.707107 -0.500000 -0.146845
v 0.707107 0.500000 -0.146845
v 0.707107 -0.250000 -1.146845
v 0.707107 0.250000 -1.146845
v 1.089790 -0.250000 -1.070724
v 1.089790 0.250000 -1.070724
v 1.414213 -0.250000 -0.853951
v 1.414213 0.250000 -0.853951
v 1.630986 -0.250000 -0.529528
v 1.630986 0.250000 -0.529528
v 1.707107 -0.250000 -0.146845
v 1.707107 0.250000 -0.146845
v 1.630986 -0.250000 0.235839
v 1.630986 0.250000 0.235839
v 0.324424 -0.250000 -1.070725
v 0.324424 0.250000 -1.070725
v -0.707107 -0.500000 -0.146845
v -0.707107 0.500000 -0.146845
v -0.707107 -0.250000 -1.146845
v -0.707107 0.250000 -1.146845
v -0.324424 -0.250000 -1.070724
v -0.324424 0.250000 -1.070724
v -0.000000 -0.250000 -0.853952
v -0.000000 0.250000 -0.853952
v -1.630987 -0.250000 0.235839
v -1.630987 0.250000 0.235839
v -1.707107 -0.250000 -0.146845
v -1.707107 0.250000 -0.146845
v -1.630987 -0.250000 -0.529528
v -1.630987 0.250000 -0.529528
v -1.414214 -0.250000 -0.853952
v -1.414214 0.250000 -0.853952
v -1.089790 -0.250000 -1.070725
v -1.089790 0.250000 -1.070725
v -0.312124 0.125000 1.662352
v 0.312124 0.125000 1.662352
v -0.168920 0.125000 1.758037
v -0.000000 0.125000 1.791638
v 0.168920 0.125000 1.758037
v 0.312124 -0.125000 1.662352
v -0.312124 -0.125000 1.662352
v 0.168920 -0.125000 1.758037
v -0.000000 -0.125000 1.791638
v -0.168920 -0.125000 1.758037
v 0.000000 -0.500000 0.560262
v -0.000000 0.500000 0.560262
vt 0.579691 0.017721
vt 0.522353 0.165147
vt 0.625000 0.965939
vt 0.375000 0.750000
vt 0.625000 0.750000
vt 0.625000 0.944824
vt 0.375000 0.944824
vt 0.062500 0.500000
vt 0.750000 0.250000
vt 0.125000 0.500000
vt 0.750000 0.490000
vt 0.841844 0.471731
vt 0.250000 0.250000
vt 0.341844 0.471731
vt 0.250000 0.490000
vt 1.000000 0.500000
vt 1.000000 1.000000
vt 0.937500 1.000000
vt 0.937500 0.500000
vt 0.919706 0.419706
vt 0.419706 0.419706
vt 0.875000 1.000000
vt 0.875000 0.500000
vt 0.971731 0.341844
vt 0.471731 0.341844
vt 0.812500 1.000000
vt 0.812500 0.500000
vt 0.990000 0.250000
vt 0.490000 0.250000
vt 0.750000 1.000000
vt 0.750000 0.500000
vt 0.971731 0.158156
vt 0.471731 0.158156
vt 0.687500 1.000000
vt 0.687500 0.500000
vt 0.919706 0.080294
vt 0.419706 0.080294
vt 0.625000 1.000000
vt 0.625000 0.500000
vt 0.750000 0.250000
vt 0.158156 0.471731
vt 0.080294 0.419706
vt 0.125000 1.000000
vt 0.062500 1.000000
vt 0.658156 0.471731
vt 0.000000 1.000000
vt 0.000000 0.500000
vt 0.750000 0.490000
vt 0.841844 0.471731
vt 0.250000 0.250000
vt 0.341844 0.471731
vt 0.250000 0.490000
vt 1.000000 0.500000
vt 1.000000 1.000000
vt 0.937500 1.000000
vt 0.937500 0.500000
vt 0.919706 0.419706
vt 0.419706 0.419706
vt 0.875000 1.000000
vt 0.875000 0.500000
vt 0.580294 0.080294
vt 0.528269 0.158156
vt 0.028269 0.158156
vt 0.080294 0.080294
vt 0.375000 0.500000
vt 0.375000 1.000000
vt 0.312500 1.000000
vt 0.312500 0.500000
vt 0.510000 0.250000
vt 0.010000 0.250000
vt 0.250000 1.000000
vt 0.250000 0.500000
vt 0.528269 0.341844
vt 0.028269 0.341844
vt 0.187500 1.000000
vt 0.187500 0.500000
vt 0.580294 0.419706
vt 0.080294 0.419706
vt 0.125000 1.000000
vt 0.125000 0.500000
vt 0.658156 0.471731
vt 0.158156 0.471731
vt 0.062500 1.000000
vt 0.062500 0.500000
vt 0.000000 1.000000
vt 0.000000 0.500000
vt 0.375000 0.834471
vt 0.375000 0.250000
vt 0.375000 0.500000
vt 0.375000 0.965939
vt 0.625000 1.000000
vt 0.375000 1.000000
vt 0.375000 0.000000
vt 0.625000 0.000000
vt 0.625000 0.034061
vt 0.375000 0.034061
vt 0.625000 0.055176
vt 0.375000 0.055176
vt 0.625000 0.250000
vt 0.250000 0.080294
vt 0.477647 0.415147
vn 0.1808 0.9456 0.2705
vn 0.7071 0.0000 0.7071
vn -0.1372 -0.9690 -0.2054
vn 0.0482 -0.9690 -0.2423
vn 0.0482 0.9690 -0.2423
vn 0.1951 0.0000 -0.9808
vn 0.1372 -0.9690 -0.2054
vn 0.1372 0.9690 -0.2054
vn 0.5556 0.0000 -0.8315
vn 0.2054 -0.9690 -0.1372
vn 0.2054 0.9690 -0.1372
vn 0.8315 0.0000 -0.5556
vn 0.2423 -0.9690 -0.0482
vn 0.2423 0.9690 -0.0482
vn 0.9808 0.0000 -0.1951
vn 0.2423 -0.9690 0.0482
vn 0.2423 0.9690 0.0482
vn 0.9808 0.0000 0.1951
vn 0.2054 -0.9690 0.1372
vn 0.2054 0.9690 0.1372
vn 0.8315 0.0000 0.5556
vn 0.0000 -0.9428 -0.3333
vn -0.1372 0.9690 -0.2054
vn -0.5556 0.0000 -0.8315
vn -0.0482 -0.9690 -0.2423
vn -0.0482 0.9690 -0.2423
vn -0.1951 0.0000 -0.9808
vn -0.2054 -0.9690 0.1372
vn -0.2054 0.9690 0.1372
vn -0.8315 0.0000 0.5556
vn -0.2423 -0.9690 0.0482
vn -0.2423 0.9690 0.0482
vn -0.9808 0.0000 0.1951
vn -0.2423 -0.9690 -0.0482
vn -0.2423 0.9690 -0.0482
vn -0.9808 0.0000 -0.1951
vn -0.2054 -0.9690 -0.1372
vn -0.2054 0.9690 -0.1372
vn -0.8315 0.0000 -0.5556
vn -0.1674 -0.9468 0.2748
vn 0.5556 0.0000 0.8315
vn 0.1951 0.0000 0.9808
vn -0.1951 0.0000 0.9808
vn -0.5556 0.0000 0.8315
vn -0.7071 0.0000 0.7071
vn 0.0000 0.9428 -0.3333
vn 0.1715 0.9701 0.1715
vn -0.1715 -0.9701 0.1715
vn 0.0000 -1.0000 0.0000
vn 0.1715 -0.9701 0.1715
vn 0.0000 1.0000 0.0000
vn -0.1715 0.9701 0.1715
vn 0.1674 -0.9468 0.2748
vn -0.0579 -0.9550 0.2908
vn 0.0579 -0.9550 0.2908
vn 0.1808 -0.9456 0.2705
vn -0.1674 0.9468 0.2748
vn 0.0579 0.9550 0.2908
vn -0.0579 0.9550 0.2908
vn 0.1674 0.9468 0.2748
vn -0.1808 0.9456 0.2705
vn -0.1808 -0.9456 0.2705
usemtl Material
s off
f 40/1/1 50/2/1 43/3/1
f 2/4/2 1/5/2 40/6/2 44/7/2
f 19/8/3 5/9/3 27/10/3
f 5/9/4 7/11/4 9/12/4
f 6/13/5 10/14/5 8/15/5
f 7/16/6 8/17/6 10/18/6 9/19/6
f 5/9/7 9/12/7 11/20/7
f 6/13/8 12/21/8 10/14/8
f 9/19/9 10/18/9 12/22/9 11/23/9
f 5/9/10 11/20/10 13/24/10
f 6/13/11 14/25/11 12/21/11
f 11/23/12 12/22/12 14/26/12 13/27/12
f 5/9/13 13/24/13 15/28/13
f 6/13/14 16/29/14 14/25/14
f 13/27/15 14/26/15 16/30/15 15/31/15
f 5/9/16 15/28/16 17/32/16
f 6/13/17 18/33/17 16/29/17
f 15/31/18 16/30/18 18/34/18 17/35/18
f 5/9/19 17/32/19 2/36/19
f 6/13/20 1/37/20 18/33/20
f 17/35/21 18/34/21 1/38/21 2/39/21
f 27/10/22 5/9/22 21/40/22
f 6/13/23 20/41/23 28/42/23
f 27/10/24 28/43/24 20/44/24 19/8/24
f 5/9/25 19/45/25 7/11/25
f 6/13/26 8/15/26 20/41/26
f 19/8/27 20/44/27 8/46/27 7/47/27
f 21/40/4 23/48/4 25/49/4
f 22/50/5 26/51/5 24/52/5
f 23/53/6 24/54/6 26/55/6 25/56/6
f 21/40/7 25/49/7 27/57/7
f 22/50/8 28/58/8 26/51/8
f 25/56/9 26/55/9 28/59/9 27/60/9
f 21/40/28 4/61/28 29/62/28
f 22/50/29 30/63/29 3/64/29
f 4/65/30 3/66/30 30/67/30 29/68/30
f 21/40/31 29/62/31 31/69/31
f 22/50/32 32/70/32 30/63/32
f 29/68/33 30/67/33 32/71/33 31/72/33
f 21/40/34 31/69/34 33/73/34
f 22/50/35 34/74/35 32/70/35
f 31/72/36 32/71/36 34/75/36 33/76/36
f 21/40/37 33/73/37 35/77/37
f 22/50/38 36/78/38 34/74/38
f 33/76/39 34/75/39 36/79/39 35/80/39
f 21/40/3 35/77/3 37/81/3
f 22/50/23 38/82/23 36/78/23
f 35/80/24 36/79/24 38/83/24 37/84/24
f 21/40/25 37/81/25 23/48/25
f 22/50/26 24/52/26 38/82/26
f 37/84/27 38/83/27 24/85/27 23/86/27
f 45/87/40 4/88/40 49/89/40
f 44/7/41 40/6/41 43/3/41 46/90/41
f 46/90/42 43/3/42 42/91/42 47/92/42
f 47/93/43 42/94/43 41/95/43 48/96/43
f 48/96/44 41/95/44 39/97/44 45/98/44
f 45/98/45 39/97/45 3/99/45 4/88/45
f 28/42/46 22/50/46 6/13/46
f 50/100/47 1/37/47 6/13/47
f 49/101/48 4/61/48 21/40/48
f 21/40/49 5/9/49 49/101/49
f 5/9/50 2/4/50 49/101/50
f 6/13/51 22/50/51 50/100/51
f 22/50/52 3/64/52 50/100/52
f 2/4/53 44/7/53 49/89/53
f 47/92/54 48/96/54 49/89/54
f 46/90/55 47/92/55 49/89/55
f 44/7/56 46/90/56 49/89/56
f 50/2/57 3/99/57 39/97/57
f 42/94/58 43/3/58 50/2/58
f 41/95/59 42/94/59 50/2/59
f 40/1/60 1/37/60 50/2/60
f 39/97/61 41/95/61 50/2/61
f 48/96/62 45/87/62 49/89/62
