# Blender v2.82 (sub 7) OBJ File: 'Plattform 2.blend'
# www.blender.org
mtllib Plattform2.mtl
o Cube_Cube.001
v -1.859868 0.162463 1.885486
v -1.912179 0.260971 1.924665
v -1.859868 0.162463 -1.885486
v -1.912179 0.260971 -1.924665
v 1.859868 0.162463 1.885486
v 1.912179 0.260971 1.924665
v 1.859868 0.162463 -1.885486
v 1.912179 0.260971 -1.924665
vt 0.504171 0.348678
vt 0.754171 0.348678
vt 0.754171 0.598678
vt 0.504171 0.598678
vt 0.258279 0.288997
vt 0.508279 0.288997
vt 0.508279 0.538997
vt 0.258279 0.538997
vt 0.002906 0.355132
vt 0.252906 0.355132
vt 0.252906 0.605132
vt 0.002906 0.605132
vt 0.692480 0.327917
vt 0.942480 0.327917
vt 0.942480 0.577917
vt 0.692480 0.577917
vt 0.125000 0.500000
vt 0.375000 0.500000
vt 0.375000 0.750000
vt 0.125000 0.750000
vt 0.625000 0.500000
vt 0.875000 0.500000
vt 0.875000 0.750000
vt 0.625000 0.750000
vn -0.8832 -0.4690 0.0000
vn 0.0000 -0.3696 -0.9292
vn 0.8832 -0.4690 0.0000
vn 0.0000 -0.3696 0.9292
vn 0.0000 -1.0000 0.0000
vn 0.0000 1.0000 0.0000
usemtl Material
s off
f 1/1/1 2/2/1 4/3/1 3/4/1
f 3/5/2 4/6/2 8/7/2 7/8/2
f 7/9/3 8/10/3 6/11/3 5/12/3
f 5/13/4 6/14/4 2/15/4 1/16/4
f 3/17/5 7/18/5 5/19/5 1/20/5
f 8/21/6 4/22/6 2/23/6 6/24/6
