# Blender v2.82 (sub 7) OBJ File: 'Plattform2.blend'
# www.blender.org
mtllib Plattform2.mtl
o Cube_Cube.001
v -1.859868 -0.142281 1.885486
v -1.912179 0.195886 1.924665
v -1.859868 -0.142281 -1.885486
v -1.912179 0.195886 -1.924665
v 1.859868 -0.142281 1.885486
v 1.912179 0.195886 1.924665
v 1.859868 -0.142281 -1.885486
v 1.912179 0.195886 -1.924665
v 1.912179 0.195886 -1.924665
v 1.859868 -0.142281 -1.885486
v 1.859868 -0.142281 1.885486
v 1.912179 0.195886 1.924665
vt 0.000016 0.010192
vt 0.019673 0.000014
vt 0.019673 0.999986
vt 0.000014 0.989807
vt 0.000014 0.013692
vt 0.018820 0.000014
vt 0.018820 0.999986
vt 0.000014 0.986309
vt 0.682831 0.000083
vt 0.000083 0.000083
vt 0.000083 0.000083
vt 0.682831 0.000083
vt 0.000014 0.013692
vt 0.018820 0.000014
vt 0.018820 0.999986
vt 0.000014 0.986309
vt 0.125000 0.500000
vt 0.375000 0.500000
vt 0.375000 0.750000
vt 0.125000 0.750000
vt 0.682831 0.999917
vt 0.000083 0.999917
vt 0.000016 0.010192
vt 0.019673 0.000014
vt 0.019673 0.999986
vt 0.000014 0.989807
vt 0.258279 0.663997
vt 0.508279 0.663997
vt 0.508279 0.663997
vt 0.258279 0.663997
vt 0.942480 0.327917
vt 0.692480 0.327917
vt 0.692480 0.327917
vt 0.942480 0.327917
vt 0.375000 0.500000
vt 0.375000 0.750000
vn -0.9882 -0.1529 0.0000
vn 0.0000 -0.1151 -0.9934
vn 0.0000 0.0000 1.0000
vn 0.0000 -0.1151 0.9934
vn 0.0000 -1.0000 0.0000
vn 0.0000 1.0000 0.0000
vn 0.9882 -0.1529 0.0000
g Cube_Cube.001_Material
usemtl Material
s off
f 1/1/1 2/2/1 4/3/1 3/4/1
f 3/5/2 4/6/2 8/7/2 7/8/2
f 8/9/3 6/10/3 12/11/3 9/12/3
f 5/13/4 6/14/4 2/15/4 1/16/4
f 3/17/5 7/18/5 5/19/5 1/20/5
f 8/9/6 4/21/6 2/22/6 6/10/6
f 10/23/7 9/24/7 12/25/7 11/26/7
f 7/27/3 8/28/3 9/29/3 10/30/3
f 6/31/3 5/32/3 11/33/3 12/34/3
f 5/19/3 7/18/3 10/35/3 11/36/3
